<?xml version="1.0" standalone="no"?><!DOCTYPE svg PUBLIC "-//W3C//DTD SVG 1.1//EN" "http://www.w3.org/Graphics/SVG/1.1/DTD/svg11.dtd"><svg t="1702116571126" class="icon" viewBox="0 0 1024 1024" version="1.1" xmlns="http://www.w3.org/2000/svg" p-id="7448" xmlns:xlink="http://www.w3.org/1999/xlink" width="200" height="200"><path d="M233.373 105.373C245.744 93 265.726 92.877 278.25 105l0.377 0.372 128 128c12.372 12.371 12.496 32.353 0.372 44.877l-0.372 0.377L301.255 384l105.372 105.373c12.372 12.371 12.496 32.353 0.372 44.877l-0.372 0.377L301.255 640l105.372 105.373c12.372 12.371 12.496 32.353 0.372 44.877l-0.372 0.377-128 128c-12.496 12.497-32.758 12.497-45.254 0C221 906.256 220.877 886.274 233 873.75l0.372-0.377L338.745 768 233.373 662.627C221 650.256 220.877 630.274 233 617.75l0.372-0.377L338.745 512 233.373 406.627C221 394.256 220.877 374.274 233 361.75l0.372-0.377L338.745 256 233.373 150.627C221 138.256 220.877 118.274 233 105.75l0.372-0.377zM790.627 105.373C778.256 93 758.274 92.877 745.75 105l-0.377 0.372-128 128C605 245.744 604.877 265.726 617 278.25l0.372 0.377L722.745 384 617.373 489.373C605 501.744 604.877 521.726 617 534.25l0.372 0.377L722.745 640 617.373 745.373C605 757.744 604.877 777.726 617 790.25l0.372 0.377 128 128c12.496 12.497 32.758 12.497 45.254 0 12.372-12.371 12.496-32.353 0.372-44.877l-0.372-0.377L685.255 768l105.372-105.373c12.372-12.371 12.496-32.353 0.372-44.877l-0.372-0.377L685.255 512l105.372-105.373c12.372-12.371 12.496-32.353 0.372-44.877l-0.372-0.377L685.255 256l105.372-105.373c12.372-12.371 12.496-32.353 0.372-44.877l-0.372-0.377z" fill="#ffffff" p-id="7449"></path></svg>